#!OML:ASF G:\ViconDB\ViconDB\414\test\team2\shane.ASF
:FULLY-SPECIFIED
:DEGREES
290
root 1.4994 16.602 21.6776 -7.41732 -1.22327 -7.77953
lowerback 5.77066 3.47713 7.71632
upperback 1.76005 5.08983 1.45114
thorax -0.865249 2.55373 -3.10706
lowerneck -13.098 -1.8901 -3.2995
upperneck 19.6834 -3.99962 9.81097
head 8.55888 -1.13464 3.41821
rclavicle -4.41488e-014 5.96354e-015
rhumerus -20.1014 22.9322 -99.6065
rradius 39.7297
rwrist 30.5176
rhand -30.9044 -13.4252
rfingers 7.12502
rthumb -4.19079 -43.3637
lclavicle -4.41488e-014 5.96354e-015
lhumerus -56.616 -8.49005 78.4343
lradius 11.5856
lwrist -25.8723
lhand -34.614 8.17816
lfingers 7.12502
lthumb -7.77226 38.0153
rfemur 34.8768 -8.80363 19.4401
rtibia 4.13472e-014
rfoot -11.0679 6.02661
rtoes -22.8575
lfemur -18.1925 13.6169 -8.90707
ltibia 32.3789
lfoot -19.9525 -18.5162
ltoes -8.17925
291
root 1.54398 16.602 21.9028 -7.54752 -1.06664 -7.38233
lowerback 5.71613 3.42553 7.28369
upperback 1.64104 4.99556 1.24995
thorax -0.988496 2.4997 -3.07433
lowerneck -13.1266 -1.85713 -3.09383
upperneck 20.0913 -4.02992 9.79194
head 8.70102 -1.12387 3.38189
rclavicle -2.50344e-014 -3.18055e-015
rhumerus -20.7566 22.3398 -100.055
rradius 39.8531
rwrist 30.5198
rhand -30.9058 -13.1885
rfingers 7.12502
rthumb -4.19214 -43.127
lclavicle -4.41488e-014 5.96354e-015
lhumerus -56.616 -8.49005 78.4343
lradius 11.5856
lwrist -25.8723
lhand -34.614 8.17816
lfingers 7.12502
lthumb -7.77226 38.0153
rfemur 35.6937 -8.49542 18.8465
rtibia -2.8625e-014
rfoot -9.54373 5.81269
rtoes -23.6263
lfemur -17.3578 13.2315 -9.25027
ltibia 32.6444
lfoot -19.2962 -18.1771
ltoes -7.94724
292
root 1.59059 16.6233 22.1247 -7.67175 -1.07309 -6.89233
lowerback 5.76029 3.42441 6.82138
upperback 1.50487 4.97482 1.02128
thorax -1.17615 2.48035 -3.06408
lowerneck -13.1254 -1.85941 -3.21093
upperneck 20.4617 -4.11431 10.1268
head 8.84324 -1.12862 3.51643
rclavicle 3.80176e-015 9.93923e-015
rhumerus -21.5472 21.3808 -100.477
rradius 39.8873
rwrist 30.996
rhand -31.0458 -13.2321
rfingers 7.12502
rthumb -4.3274 -43.1678
lclavicle 3.80176e-015 9.93923e-015
lhumerus -56.8798 -7.89333 77.4197
lradius 10.993
lwrist -27.2125
lhand -33.9669 8.06293
lfingers 7.12502
lthumb -7.14763 37.9222
rfemur 36.3728 -7.97727 18.1167
rtibia 6.36111e-014
rfoot -7.35649 5.82
rtoes -23.7147
lfemur -16.4197 12.9742 -9.66105
ltibia 32.7822
lfoot -18.88 -17.7629
ltoes -7.92386
293
root 1.62938 16.63 22.3379 -7.75805 -0.964466 -6.31582
lowerback 5.6097 3.42332 6.05817
upperback 1.45507 4.91763 0.83933
thorax -1.19881 2.45129 -2.81988
lowerneck -13.078 -1.87692 -3.31829
upperneck 20.6488 -4.16884 10.2901
head 8.90822 -1.14227 3.58974
rclavicle -1.8313e-014 -9.14409e-015
rhumerus -22.297 20.3505 -100.822
rradius 39.8775
rwrist 31.3289
rhand -31.0234 -13.0854
rfingers 7.12502
rthumb -4.3057 -43.0217
lclavicle 3.80176e-015 9.93923e-015
lhumerus -56.8798 -7.89333 77.4197
lradius 10.993
lwrist -27.2125
lhand -33.9669 8.06293
lfingers 7.12502
lthumb -7.14763 37.9222
rfemur 36.9333 -7.62209 17.4129
rtibia 0
rfoot -4.97108 5.58984
rtoes -25.9175
lfemur -15.5975 12.8991 -10.163
ltibia 32.8407
lfoot -18.8354 -17.6581
ltoes -7.767
294
root 1.67268 16.6483 22.5491 -7.93374 -0.790826 -5.87755
lowerback 5.42802 3.38653 5.56035
upperback 1.55421 4.82187 0.654884
thorax -1.02952 2.41141 -2.71307
lowerneck -13.1369 -1.92017 -3.30534
upperneck 20.7176 -4.2572 10.3699
head 8.95187 -1.17111 3.60655
rclavicle -1.27968e-014 1.98785e-015
rhumerus -22.9258 19.1994 -101.015
rradius 39.8553
rwrist 31.6261
rhand -31.2318 -13.2032
rfingers 7.12502
rthumb -4.50701 -43.1352
lclavicle -1.27968e-014 1.98785e-015
lhumerus -56.1082 -6.72273 76.1803
lradius 10.5201
lwrist -29.3235
lhand -33.6381 8.34472
lfingers 7.12502
lthumb -6.83021 38.2145
rfemur 37.4572 -7.2959 16.7277
rtibia -4.77083e-014
rfoot -1.88061 5.53494
rtoes -26.3442
lfemur -14.6078 13.4863 -10.5486
ltibia 32.8369
lfoot -19.1748 -18.3896
ltoes -7.98831
